<?xml version="1.0" encoding="UTF-8" standalone="no"?>
<!-- Created with Inkscape (http://www.inkscape.org/) -->

<svg
   version="1.1"
   id="svg1"
   width="1017.1727"
   height="200.57861"
   viewBox="0 0 1017.1727 200.57861"
   xmlns="http://www.w3.org/2000/svg"
   xmlns:svg="http://www.w3.org/2000/svg">
  <defs
     id="defs1">
    <clipPath
       clipPathUnits="userSpaceOnUse"
       id="clipPath9564">
      <path
         d="M 3.5523e-5,0 H 2383.92 V 3370.32 H 3.5523e-5 Z"
         transform="matrix(1,0,0,-1,-1720.3401,2511.2901)"
         clip-rule="evenodd"
         id="path9564" />
    </clipPath>
    <clipPath
       clipPathUnits="userSpaceOnUse"
       id="clipPath9566">
      <path
         d="M 3.5523e-5,0 H 2383.92 V 3370.32 H 3.5523e-5 Z"
         transform="matrix(1,0,0,-1,-1792.7001,2511.2901)"
         clip-rule="evenodd"
         id="path9566" />
    </clipPath>
    <clipPath
       clipPathUnits="userSpaceOnUse"
       id="clipPath9568">
      <path
         d="M 3.5523e-5,0 H 2383.92 V 3370.32 H 3.5523e-5 Z"
         transform="matrix(1,0,0,-1,-1804.9401,2511.2901)"
         clip-rule="evenodd"
         id="path9568" />
    </clipPath>
    <clipPath
       clipPathUnits="userSpaceOnUse"
       id="clipPath9570">
      <path
         d="M 3.5523e-5,0 H 2383.92 V 3370.32 H 3.5523e-5 Z"
         transform="matrix(1,0,0,-1,-1985.6901,2438.26)"
         clip-rule="evenodd"
         id="path9570" />
    </clipPath>
  </defs>
  <g
     id="g1"
     transform="translate(-1961.007,-1111.5469)">
    <g
       id="g9560">
      <path
         id="path9561"
         d="m 1472.76,2391.6 c 15.33,13.77 54.84,75.78 92,82.67 37.17,6.89 88.04,-39.55 130.98,-41.34 42.93,-1.78 85.86,37.77 126.63,30.65 40.77,-7.13 76.67,-66.52 117.98,-73.41 41.32,-6.89 108.24,26.73 129.89,32.07"
         style="fill:none;stroke:#44546a;stroke-width:6;stroke-linecap:butt;stroke-linejoin:round;stroke-miterlimit:8;stroke-dasharray:none;stroke-opacity:1"
         transform="matrix(1.3333333,0,0,-1.3333333,0,4493.76)" />
    </g>
    <g
       id="g9561">
      <path
         id="path9562"
         d="m 1695.72,2495.28 c 0,4.77 3.89,8.64 8.7,8.64 4.8,0 8.7,-3.87 8.7,-8.64 0,-4.77 -3.9,-8.64 -8.7,-8.64 -4.81,0 -8.7,3.87 -8.7,8.64 z"
         style="fill:#000000;fill-opacity:1;fill-rule:evenodd;stroke:#44546a;stroke-width:0.75;stroke-linecap:butt;stroke-linejoin:round;stroke-miterlimit:8;stroke-dasharray:none;stroke-opacity:1"
         transform="matrix(1.3333333,0,0,-1.3333333,0,4493.76)" />
    </g>
    <g
       id="g9562">
      <path
         id="path9563"
         d="m 19.826992,-0.54953125 c 0,0.11132812 -0.02344,0.20800781 -0.07031,0.29296875 -0.04687,0.0791016 -0.137696,0.14648437 -0.269532,0.19921875 -0.125976,0.05566406 -0.301757,0.09667969 -0.527343,0.12890625 -0.219727,0.02929687 -0.503907,0.046875 -0.855469,0.046875 -0.454102,0 -0.826172,-0.02050781 -1.113281,-0.05859375 -0.28125,-0.04101563 -0.498047,-0.10839844 -0.644532,-0.2109375 -0.140625,-0.10839844 -0.257812,-0.22558594 -0.351562,-0.3515625 L 6.7137109,-13.135469 v 12.63281275 c 0,0.0878906 -0.029297,0.17285156 -0.082031,0.2578125 C 6.5760156,-0.15695313 6.4822656,-0.0925 6.3504297,-0.045625 6.2244531,0.00125 6.0516016,0.03933594 5.8348047,0.0715625 5.6238672,0.10085937 5.3572656,0.1184375 5.0379297,0.1184375 4.7244531,0.1184375 4.4549219,0.1008594 4.2293359,0.0715625 4.0096094,0.03933594 3.8338281,0.00125 3.7019922,-0.045625 3.5760156,-0.0925 3.4851953,-0.15695313 3.4324609,-0.24484375 3.3767969,-0.32980469 3.3504297,-0.41476563 3.3504297,-0.50265625 V -24.737031 c 0,-0.108399 0.026367,-0.202149 0.082031,-0.28125 0.052734,-0.07617 0.1435547,-0.134766 0.2695313,-0.175782 0.1318359,-0.04687 0.3076172,-0.08496 0.5273437,-0.117187 0.225586,-0.03809 0.4951172,-0.05859 0.8085938,-0.05859 0.3193359,0 0.5859375,0.02051 0.796875,0.05859 0.2167969,0.03223 0.3896484,0.07031 0.515625,0.117187 0.1318359,0.04102 0.2255859,0.09961 0.28125,0.175782 0.052734,0.0791 0.082031,0.172851 0.082031,0.28125 v 11.214843 l 8.9296875,-11.214843 c 0.07617,-0.117188 0.166993,-0.213867 0.269532,-0.292969 0.108398,-0.07617 0.237304,-0.140625 0.386718,-0.1875 0.146485,-0.04687 0.328125,-0.08203 0.539063,-0.105469 0.216797,-0.0293 0.498047,-0.04687 0.84375,-0.04687 0.333984,0 0.603516,0.02051 0.808594,0.05859 0.210937,0.03223 0.377929,0.07617 0.503906,0.128906 0.123047,0.04687 0.205078,0.111328 0.246094,0.1875 0.04687,0.0791 0.07031,0.164063 0.07031,0.257813 0,0.164062 -0.04395,0.333984 -0.128906,0.503906 -0.0791,0.172852 -0.234375,0.407227 -0.46875,0.703125 l -8.378906,10.007812 9.023437,11.976563 c 0.216797,0.3457031 0.351563,0.58007812 0.398438,0.703125 0.04687,0.1171875 0.07031,0.21679687 0.07031,0.29296875 z M 43.200039,-1.3815625 c 0,0.2578125 -0.04394,0.48046875 -0.128906,0.66796875 -0.08789,0.18164062 -0.199219,0.328125 -0.339844,0.4453125 -0.134766,0.1171875 -0.287109,0.20507812 -0.457031,0.2578125 -0.164063,0.046875 -0.333985,0.0703125 -0.503906,0.0703125 h -1.066407 c -0.345703,0 -0.644531,-0.03515625 -0.902343,-0.10546875 -0.251954,-0.0703125 -0.489258,-0.19921875 -0.714844,-0.38671875 -0.228516,-0.19335938 -0.454102,-0.45117188 -0.679688,-0.77343755 -0.228515,-0.328125 -0.477539,-0.7441406 -0.75,-1.2539062 L 29.700039,-16.815156 c -0.421875,-0.741211 -0.84375,-1.517578 -1.265625,-2.332032 -0.421875,-0.811523 -0.817383,-1.605468 -1.183594,-2.378906 h -0.03516 c 0.02344,0.9375 0.04102,1.895508 0.05859,2.871094 0.01465,0.978516 0.02344,1.945312 0.02344,2.90625 v 15.24609375 c 0,0.0878906 -0.0293,0.17285156 -0.08203,0.2578125 C 27.16,-0.15695313 27.06918,-0.0925 26.946133,-0.045625 c -0.117188,0.046875 -0.27832,0.08496094 -0.480469,0.1171875 -0.205078,0.02929687 -0.462891,0.046875 -0.773437,0.046875 -0.313477,0 -0.571289,-0.0175781 -0.773438,-0.046875 C 24.7225,0.03933594 24.567227,0.00125 24.450039,-0.045625 24.332852,-0.0925 24.244961,-0.15695313 24.192227,-0.24484375 c -0.05566,-0.0849609 -0.08203,-0.16992188 -0.08203,-0.2578125 V -23.799531 c 0,-0.521485 0.143555,-0.893555 0.433594,-1.113282 0.287109,-0.225585 0.600586,-0.339843 0.9375,-0.339843 h 1.59375 c 0.380859,0 0.697266,0.03516 0.949219,0.105468 0.257812,0.06445 0.483398,0.169922 0.679687,0.316407 0.202149,0.149414 0.398438,0.360351 0.585938,0.632812 0.193359,0.266602 0.401367,0.597656 0.621094,0.996094 l 6.128906,11.085937 c 0.375,0.679688 0.738281,1.341797 1.089844,1.980469 0.351562,0.6416018 0.685546,1.2744143 1.007812,1.8984377 0.328125,0.6269532 0.650391,1.2421875 0.972656,1.8515625 0.319336,0.6035157 0.635743,1.2070313 0.949219,1.8164063 h 0.01172 c -0.02344,-1.0224609 -0.04102,-2.0888672 -0.04687,-3.1992188 -0.0088,-1.1162109 -0.01172,-2.1855468 -0.01172,-3.2109377 v -13.699219 c 0,-0.09375 0.02637,-0.17871 0.08203,-0.257812 0.05274,-0.07617 0.140625,-0.143555 0.257813,-0.199219 0.123047,-0.06152 0.287109,-0.105469 0.492187,-0.128906 0.202149,-0.0293 0.46875,-0.04687 0.796875,-0.04687 0.28125,0 0.527344,0.01758 0.738282,0.04687 0.210937,0.02344 0.36914,0.06738 0.480468,0.128906 0.117188,0.05566 0.202149,0.123047 0.257813,0.199219 0.05273,0.0791 0.08203,0.164062 0.08203,0.257812 z m 25.795899,0 c 0,0.2578125 -0.04395,0.48046875 -0.128907,0.66796875 -0.08789,0.18164062 -0.199218,0.328125 -0.339843,0.4453125 -0.134766,0.1171875 -0.28711,0.20507812 -0.457032,0.2578125 -0.164062,0.046875 -0.333984,0.0703125 -0.503906,0.0703125 h -1.066406 c -0.345703,0 -0.644531,-0.03515625 -0.902344,-0.10546875 -0.251953,-0.0703125 -0.489258,-0.19921875 -0.714844,-0.38671875 -0.228515,-0.19335938 -0.454101,-0.45117188 -0.679687,-0.77343755 -0.228516,-0.328125 -0.477539,-0.7441406 -0.75,-1.2539062 L 55.495938,-16.815156 c -0.421875,-0.741211 -0.84375,-1.517578 -1.265625,-2.332032 -0.421875,-0.811523 -0.817383,-1.605468 -1.183594,-2.378906 h -0.03516 c 0.02344,0.9375 0.04101,1.895508 0.05859,2.871094 0.01465,0.978516 0.02344,1.945312 0.02344,2.90625 v 15.24609375 c 0,0.0878906 -0.0293,0.17285156 -0.08203,0.2578125 -0.05567,0.0878906 -0.146485,0.15234375 -0.269532,0.19921875 -0.117187,0.046875 -0.27832,0.08496094 -0.480468,0.1171875 -0.205079,0.02929687 -0.462891,0.046875 -0.773438,0.046875 -0.313477,0 -0.571289,-0.0175781 -0.773437,-0.046875 C 50.518398,0.03933594 50.363125,0.00125 50.245938,-0.045625 50.12875,-0.0925 50.040859,-0.15695313 49.988125,-0.24484375 c -0.05566,-0.0849609 -0.08203,-0.16992188 -0.08203,-0.2578125 V -23.799531 c 0,-0.521485 0.143554,-0.893555 0.433594,-1.113282 0.287109,-0.225585 0.600585,-0.339843 0.9375,-0.339843 h 1.59375 c 0.380859,0 0.697265,0.03516 0.949218,0.105468 0.257813,0.06445 0.483399,0.169922 0.679688,0.316407 0.202148,0.149414 0.398437,0.360351 0.585937,0.632812 0.19336,0.266602 0.401367,0.597656 0.621094,0.996094 l 6.128906,11.085937 c 0.375,0.679688 0.738282,1.341797 1.089844,1.980469 0.351563,0.6416018 0.685547,1.2744143 1.007813,1.8984377 0.328125,0.6269532 0.65039,1.2421875 0.972656,1.8515625 0.319336,0.6035157 0.635742,1.2070313 0.949219,1.8164063 h 0.01172 c -0.02344,-1.0224609 -0.04102,-2.0888672 -0.04687,-3.1992188 -0.0088,-1.1162109 -0.01172,-2.1855468 -0.01172,-3.2109377 v -13.699219 c 0,-0.09375 0.02637,-0.17871 0.08203,-0.257812 0.05273,-0.07617 0.140625,-0.143555 0.257812,-0.199219 0.123047,-0.06152 0.28711,-0.105469 0.492188,-0.128906 0.202148,-0.0293 0.46875,-0.04687 0.796875,-0.04687 0.28125,0 0.527344,0.01758 0.738281,0.04687 0.210938,0.02344 0.369141,0.06738 0.480469,0.128906 0.117187,0.05566 0.202148,0.123047 0.257812,0.199219 0.05273,0.0791 0.08203,0.164062 0.08203,0.257812 z m 0,0"
         style="fill:#000000;fill-opacity:1;fill-rule:nonzero;stroke:none"
         aria-label="KNN"
         transform="matrix(1.3333333,0,0,1.3333333,2293.7867,1145.3733)"
         clip-path="url(#clipPath9564)" />
      <path
         id="path9565"
         d="m 10.885938,-9.8542188 c 0,0.5097657 -0.05859,0.8613282 -0.175782,1.0546875 -0.117187,0.1962891 -0.287109,0.2929688 -0.503906,0.2929688 H 2.05 c -0.234375,0 -0.4101562,-0.099609 -0.5273437,-0.3046875 C 1.4054688,-9.0133984 1.346875,-9.3620313 1.346875,-9.8542188 c 0,-0.4921872 0.058594,-0.8349612 0.1757813,-1.0312502 C 1.6398438,-11.078828 1.815625,-11.178438 2.05,-11.178438 h 8.15625 c 0.09961,0 0.193359,0.02051 0.28125,0.05859 0.08496,0.04102 0.155273,0.114258 0.210938,0.222656 0.06152,0.111329 0.108398,0.251954 0.140625,0.421875 0.0293,0.172852 0.04687,0.38086 0.04687,0.6210942 z m 0,0"
         style="fill:#000000;fill-opacity:1;fill-rule:nonzero;stroke:none"
         aria-label="-"
         transform="matrix(1.3333333,0,0,1.3333333,2390.2667,1145.3733)"
         clip-path="url(#clipPath9566)" />
      <path
         id="path9567"
         d="m 16.452578,-1.4635938 c 0,0.2578125 -0.01758,0.47753911 -0.04687,0.65625005 -0.02344,0.17285156 -0.06738,0.32226562 -0.128906,0.4453125 -0.05566,0.12597656 -0.125977,0.21972656 -0.210938,0.28125 C 15.977969,-0.02511719 15.878359,0.00125 15.761172,0.00125 H 4.6049219 c -0.2988282,0 -0.5830078,-0.09960938 -0.8554688,-0.3046875 C 3.4828516,-0.50558594 3.3510156,-0.86007813 3.3510156,-1.3698438 V -24.737031 c 0,-0.108399 0.026367,-0.202149 0.082031,-0.28125 0.052734,-0.07617 0.1435547,-0.134766 0.2695312,-0.175782 0.131836,-0.04687 0.3076172,-0.08496 0.5273438,-0.117187 0.2255859,-0.03809 0.4951172,-0.05859 0.8085937,-0.05859 0.319336,0 0.5859375,0.02051 0.796875,0.05859 0.2167969,0.03223 0.3896485,0.07031 0.515625,0.117187 0.131836,0.04102 0.225586,0.09961 0.28125,0.175782 0.052734,0.0791 0.082031,0.172851 0.082031,0.28125 V -2.905 h 9.0468747 c 0.117187,0 0.216797,0.032227 0.304687,0.09375 0.08496,0.055664 0.155274,0.1376953 0.210938,0.2460937 0.06152,0.1113282 0.105469,0.2578125 0.128906,0.4453125 0.0293,0.1816407 0.04687,0.3984375 0.04687,0.65625 z m 31.180664,0.96093755 c 0,0.10253906 -0.0293,0.19335937 -0.08203,0.26953125 -0.04687,0.0791016 -0.137695,0.140625 -0.269531,0.1875 -0.134766,0.046875 -0.301758,0.08496094 -0.503907,0.1171875 -0.196289,0.02929687 -0.457031,0.046875 -0.785156,0.046875 -0.298828,0 -0.55664,-0.0175781 -0.773437,-0.046875 C 45.008242,0.03933594 44.83832,0.00125 44.715273,-0.045625 44.589297,-0.0925 44.498477,-0.15402344 44.445742,-0.233125 44.398867,-0.30929688 44.37543,-0.40011719 44.37543,-0.50265625 V -22.49875 h -0.03516 l -9,22.08984375 c -0.04102,0.09375 -0.09375,0.17285156 -0.164062,0.234375 -0.07031,0.0644531 -0.175781,0.1171875 -0.316406,0.1640625 -0.134766,0.046875 -0.292969,0.07617187 -0.480469,0.09375 -0.1875,0.0234375 -0.416016,0.03515625 -0.679688,0.03515625 -0.27539,0 -0.509765,-0.0175781 -0.703125,-0.046875 C 32.800234,0.048125 32.636172,0.01589844 32.504336,-0.0221875 32.378359,-0.0690625 32.28168,-0.12179688 32.211367,-0.18625 32.141055,-0.2565625 32.08832,-0.32980469 32.059023,-0.40890625 L 23.457461,-22.49875 h -0.02344 v 21.99609375 c 0,0.10253906 -0.0293,0.19335937 -0.08203,0.26953125 -0.04687,0.0791016 -0.137695,0.140625 -0.269531,0.1875 -0.125977,0.046875 -0.292969,0.08496094 -0.503906,0.1171875 -0.205078,0.02929687 -0.46875,0.046875 -0.796875,0.046875 -0.313477,0 -0.574219,-0.0175781 -0.785157,-0.046875 -0.205078,-0.03222656 -0.36914,-0.0703125 -0.492187,-0.1171875 -0.125977,-0.046875 -0.210938,-0.10839844 -0.257813,-0.1875 -0.04687,-0.0761719 -0.07031,-0.16699219 -0.07031,-0.26953125 V -23.729219 c 0,-0.544922 0.143555,-0.9375 0.433594,-1.171875 0.287109,-0.234375 0.609375,-0.351562 0.960937,-0.351562 h 2.027344 c 0.413086,0 0.776367,0.04102 1.089844,0.117187 0.310547,0.0791 0.585937,0.205078 0.820312,0.375 0.234375,0.172852 0.427735,0.386719 0.585938,0.644531 0.155273,0.257813 0.292968,0.5625 0.410156,0.914063 l 7.3125,18.28125 h 0.105469 l 7.605468,-18.222656 c 0.140625,-0.389649 0.295899,-0.720703 0.46875,-0.996094 0.169922,-0.272461 0.354493,-0.486328 0.550782,-0.644531 0.202148,-0.164063 0.424804,-0.28125 0.667968,-0.351563 0.249024,-0.07617 0.539063,-0.117187 0.867188,-0.117187 h 2.132812 c 0.19336,0 0.37793,0.03223 0.550782,0.09375 0.169922,0.05566 0.319336,0.146484 0.445312,0.269531 0.123047,0.125977 0.225586,0.28125 0.304688,0.46875 0.07617,0.1875 0.117187,0.418945 0.117187,0.691406 z m 0,0"
         style="fill:#000000;fill-opacity:1;fill-rule:nonzero;stroke:none"
         aria-label="LM"
         transform="matrix(1.3333333,0,0,1.3333333,2406.5867,1145.3733)"
         clip-path="url(#clipPath9568)" />
    </g>
    <g
       id="g9568">
      <path
         id="path9569"
         d="m 30.808047,-0.50433594 c 0,0.10253906 -0.0293,0.19335938 -0.08203,0.26953125 -0.04687,0.0791016 -0.137696,0.140625 -0.269532,0.1875 -0.134765,0.0468750025 -0.301757,0.08496094 -0.503906,0.1171875 -0.196289,0.02929688 -0.457031,0.046875 -0.785156,0.046875 -0.298828,0 -0.556641,-0.01757812 -0.773438,-0.046875 -0.210937,-0.03222656 -0.380859,-0.0703124975 -0.503906,-0.1171875 -0.125976,-0.046875 -0.216797,-0.10839844 -0.269531,-0.1875 -0.04687,-0.0761719 -0.07031,-0.16699219 -0.07031,-0.26953125 V -22.50043 h -0.03516 l -9,22.08984406 c -0.04101,0.09375 -0.09375,0.17285156 -0.164062,0.234375 -0.07031,0.0644531 -0.175782,0.1171875 -0.316407,0.1640625 -0.134765,0.046875 -0.292968,0.07617188 -0.480468,0.09375 -0.1875,0.0234375 -0.416016,0.03515625 -0.679688,0.03515625 -0.27539,0 -0.509765,-0.01757812 -0.703125,-0.046875 -0.196289,-0.0234375 -0.360351,-0.05566406 -0.492187,-0.09375 -0.125977,-0.046875 -0.222657,-0.09960937 -0.292969,-0.1640625 -0.07031,-0.0703125 -0.123047,-0.14355469 -0.152344,-0.22265625 L 6.6322656,-22.50043 h -0.023437 v 21.99609406 c 0,0.10253906 -0.029297,0.19335938 -0.082031,0.26953125 -0.046875,0.0791016 -0.1376953,0.140625 -0.2695313,0.1875 -0.1259765,0.0468750025 -0.2929687,0.08496094 -0.5039062,0.1171875 -0.2050781,0.02929688 -0.46875,0.046875 -0.796875,0.046875 -0.3134766,0 -0.5742188,-0.01757812 -0.7851563,-0.046875 C 3.96625,0.03765625 3.8021875,-4.296875e-4 3.6791406,-0.04730469 c -0.1259765,-0.046875 -0.2109375,-0.10839844 -0.2578125,-0.1875 -0.046875,-0.0761719 -0.070312,-0.16699219 -0.070312,-0.26953125 V -23.730898 c 0,-0.544922 0.1435547,-0.9375 0.4335938,-1.171875 0.2871094,-0.234375 0.609375,-0.351563 0.9609375,-0.351563 h 2.0273437 c 0.413086,0 0.7763672,0.04102 1.0898438,0.117188 0.3105469,0.0791 0.5859375,0.205078 0.8203125,0.375 0.234375,0.172851 0.4277344,0.386718 0.5859375,0.644531 0.1552734,0.257812 0.2929687,0.5625 0.4101562,0.914062 l 7.3124999,18.2812503 h 0.105468 l 7.605469,-18.2226563 c 0.140625,-0.389648 0.295899,-0.720703 0.46875,-0.996094 0.169922,-0.272461 0.354492,-0.486328 0.550781,-0.644531 0.202149,-0.164062 0.424805,-0.28125 0.667969,-0.351562 0.249024,-0.07617 0.539063,-0.117188 0.867188,-0.117188 h 2.132812 c 0.19336,0 0.37793,0.03223 0.550781,0.09375 0.169922,0.05566 0.319336,0.146484 0.445313,0.269531 0.123047,0.125977 0.225586,0.28125 0.304687,0.46875 0.07617,0.1875 0.117188,0.418946 0.117188,0.691407 z m 19.576172,0.0351563 c 0,0.15820313 -0.05566,0.27539063 -0.164063,0.3515625 -0.102539,0.07910156 -0.246093,0.13476563 -0.433593,0.17578125 -0.181641,0.03808589 -0.445313,0.0585937 -0.796875,0.0585937 -0.336915,0 -0.606446,-0.02050781 -0.808594,-0.05859375 C 47.984805,0.01714844 47.84125,-0.03851563 47.7475,-0.11761719 47.65375,-0.19378906 47.606875,-0.31097656 47.606875,-0.46917969 V -2.2269922 c -0.767578,0.8203125 -1.623047,1.46191407 -2.566406,1.92187501 -0.9375,0.45117188 -1.933594,0.6796875 -2.988281,0.6796875 -0.931641,0 -1.769532,-0.12304687 -2.519532,-0.36328125 -0.74414,-0.24023437 -1.379883,-0.58886719 -1.910156,-1.04296876 -0.524414,-0.4599609 -0.93457,-1.0195312 -1.230469,-1.6757812 -0.290039,-0.6621094 -0.433593,-1.4208985 -0.433593,-2.2734375 0,-0.984375 0.199218,-1.8398438 0.597656,-2.5664063 0.404297,-0.7324219 0.987304,-1.3388672 1.746094,-1.8164062 0.755859,-0.4833985 1.67871,-0.8437501 2.765625,-1.0781251 1.092773,-0.240234 2.323242,-0.363281 3.691406,-0.363281 H 47.185 v -1.371094 c 0,-0.679687 -0.07617,-1.277344 -0.222656,-1.792969 -0.140625,-0.521484 -0.372071,-0.955078 -0.691406,-1.300781 -0.322266,-0.342773 -0.735352,-0.600586 -1.242188,-0.773437 -0.509766,-0.178711 -1.130859,-0.269532 -1.863281,-0.269532 -0.796875,0 -1.511719,0.09375 -2.144531,0.28125 -0.626954,0.1875 -1.177735,0.398438 -1.652344,0.632813 -0.477539,0.228515 -0.875977,0.433594 -1.195313,0.621094 -0.322265,0.1875 -0.55957,0.28125 -0.714843,0.28125 -0.10254,0 -0.19336,-0.02344 -0.269532,-0.07031 -0.0791,-0.05273 -0.149414,-0.131836 -0.210937,-0.234375 -0.05566,-0.108398 -0.09961,-0.246094 -0.128906,-0.410156 -0.02344,-0.164063 -0.03516,-0.342774 -0.03516,-0.539063 0,-0.319336 0.02344,-0.574218 0.07031,-0.761718 0.04687,-0.19336 0.155273,-0.375 0.328125,-0.539063 0.178711,-0.169922 0.483398,-0.369141 0.914062,-0.597656 0.427735,-0.225586 0.919922,-0.433594 1.476563,-0.621094 0.5625,-0.1875 1.174804,-0.342773 1.839844,-0.46875 0.662109,-0.123047 1.335937,-0.1875 2.015625,-0.1875 1.256835,0 2.326171,0.146484 3.210937,0.433594 0.890625,0.28125 1.605469,0.700195 2.144531,1.253906 0.544922,0.556641 0.94336,1.242188 1.195313,2.0625 0.249023,0.814453 0.375,1.766602 0.375,2.859375 z M 47.185,-8.4848047 h -2.753906 c -0.884766,0 -1.652344,0.076172 -2.308594,0.2226563 -0.650391,0.149414 -1.189453,0.3720703 -1.617187,0.6679687 -0.430665,0.2900391 -0.747071,0.6416016 -0.949219,1.0546875 -0.196289,0.4072266 -0.292969,0.8759766 -0.292969,1.40625 0,0.9140625 0.287109,1.640625 0.867188,2.1796875 0.577148,0.5390625 1.385742,0.8085938 2.425781,0.8085938 0.84375,0 1.623047,-0.2138672 2.34375,-0.6445313 0.726562,-0.4277344 1.488281,-1.0839844 2.285156,-1.96875 z m 24.228516,7.99218751 c 0,0.11132813 -0.0293,0.19921875 -0.08203,0.26953125 -0.04687,0.0703125 -0.128906,0.13476563 -0.246093,0.1875 -0.117188,0.046875 -0.28125,0.08203125 -0.492188,0.10546875 -0.205078,0.02929688 -0.46289,0.046875 -0.773437,0.046875 -0.328125,0 -0.597657,-0.01757812 -0.808594,-0.046875 -0.205078,-0.0234375 -0.363281,-0.05859375 -0.480469,-0.10546875 -0.117187,-0.05273437 -0.205078,-0.1171875 -0.257812,-0.1875 -0.05566,-0.0703125 -0.08203,-0.15820312 -0.08203,-0.26953125 V -10.769961 c 0,-0.999023 -0.0791,-1.804687 -0.234375,-2.414062 -0.158203,-0.615235 -0.383789,-1.142579 -0.679687,-1.582032 -0.298828,-0.445312 -0.685547,-0.785156 -1.160156,-1.019531 -0.477539,-0.234375 -1.028321,-0.351562 -1.652344,-0.351562 -0.805664,0 -1.611328,0.290039 -2.414063,0.867187 -0.805664,0.571289 -1.652343,1.40625 -2.542968,2.507813 v 12.26953081 c 0,0.11132813 -0.0293,0.19921875 -0.08203,0.26953125 -0.04687,0.0703125 -0.128906,0.13476563 -0.246093,0.1875 -0.117188,0.046875 -0.28125,0.08203125 -0.492188,0.10546875 -0.205078,0.02929688 -0.46875,0.046875 -0.796875,0.046875 -0.313476,0 -0.574219,-0.01757812 -0.785156,-0.046875 -0.205078,-0.0234375 -0.369141,-0.05859375 -0.492188,-0.10546875 -0.125976,-0.05273437 -0.210937,-0.1171875 -0.257812,-0.1875 -0.04102,-0.0703125 -0.05859,-0.15820312 -0.05859,-0.26953125 V -18.047305 c 0,-0.09961 0.01758,-0.1875 0.05859,-0.257812 0.03809,-0.07617 0.117187,-0.143555 0.234375,-0.199219 0.117187,-0.06152 0.263672,-0.09961 0.445312,-0.117187 0.178711,-0.02344 0.421875,-0.03516 0.726563,-0.03516 0.28125,0 0.515625,0.01172 0.703125,0.03516 0.193359,0.01758 0.342773,0.05566 0.445312,0.117187 0.09961,0.05566 0.175782,0.123047 0.222657,0.199219 0.04687,0.07031 0.07031,0.158203 0.07031,0.257812 v 2.320313 c 0.984375,-1.107422 1.96875,-1.916016 2.953125,-2.425781 0.984375,-0.515625 1.97461,-0.773438 2.976563,-0.773438 1.171875,0 2.15625,0.199219 2.953125,0.597656 0.802734,0.392578 1.453125,0.919922 1.945312,1.582032 0.492188,0.665039 0.84375,1.441406 1.054688,2.332031 0.216797,0.890625 0.328125,1.96289 0.328125,3.210937 z m 9.070312,0 c 0,0.11132813 -0.0293,0.19921875 -0.08203,0.26953125 -0.04687,0.0703125 -0.128906,0.13476563 -0.246094,0.1875 -0.117187,0.046875 -0.28125,0.08203125 -0.492187,0.10546875 -0.205078,0.02929688 -0.46875,0.046875 -0.796875,0.046875 -0.313477,0 -0.574219,-0.01757812 -0.785157,-0.046875 -0.205078,-0.0234375 -0.36914,-0.05859375 -0.492187,-0.10546875 -0.125977,-0.05273437 -0.210938,-0.1171875 -0.257813,-0.1875 -0.04102,-0.0703125 -0.05859,-0.15820312 -0.05859,-0.26953125 V -18.047305 c 0,-0.09375 0.01758,-0.178711 0.05859,-0.257812 0.04687,-0.07617 0.131836,-0.140625 0.257813,-0.1875 0.123047,-0.05274 0.287109,-0.09375 0.492187,-0.117188 0.210938,-0.0293 0.47168,-0.04687 0.785157,-0.04687 0.328125,0 0.591797,0.01758 0.796875,0.04687 0.210937,0.02344 0.375,0.06445 0.492187,0.117188 0.117188,0.04687 0.199219,0.111328 0.246094,0.1875 0.05273,0.0791 0.08203,0.164062 0.08203,0.257812 z m 0.375,-23.48437481 c 0,0.75 -0.146484,1.262695 -0.433594,1.535156 -0.28125,0.275391 -0.805664,0.410156 -1.570312,0.410156 -0.758789,0 -1.277344,-0.131836 -1.558594,-0.398437 -0.28125,-0.263672 -0.421875,-0.767578 -0.421875,-1.511719 0,-0.755859 0.143555,-1.271484 0.433594,-1.546875 0.287109,-0.272461 0.814453,-0.410156 1.582031,-0.410156 0.75586,0 1.271485,0.137695 1.546875,0.410156 0.28125,0.266602 0.421875,0.770508 0.421875,1.511719 z m 15.225586,-1.289063 c 0,0.243164 -0.01758,0.442383 -0.04687,0.597657 -0.02344,0.149414 -0.05273,0.269531 -0.08203,0.363281 -0.03223,0.08789 -0.07617,0.146484 -0.128906,0.175781 -0.05566,0.03223 -0.123047,0.04687 -0.199219,0.04687 -0.08789,0 -0.199219,-0.02637 -0.339844,-0.08203 -0.134766,-0.06152 -0.298828,-0.128906 -0.492187,-0.199219 -0.196289,-0.07031 -0.430664,-0.131836 -0.703125,-0.1875 -0.266602,-0.06152 -0.571289,-0.09375 -0.914063,-0.09375 -0.486328,0 -0.899414,0.0791 -1.242187,0.234375 -0.336914,0.158203 -0.609375,0.404297 -0.820313,0.738281 -0.205078,0.328125 -0.351562,0.758789 -0.445312,1.289063 -0.08789,0.524414 -0.128907,1.160156 -0.128907,1.910156 v 1.921875 h 3.914063 c 0.108398,0 0.199219,0.02344 0.269531,0.07031 0.07031,0.04102 0.131836,0.117187 0.1875,0.234375 0.06152,0.111328 0.108399,0.251953 0.140625,0.421875 0.0293,0.164062 0.04687,0.36914 0.04687,0.609375 0,0.46875 -0.05859,0.808593 -0.175781,1.019531 -0.117188,0.210937 -0.275391,0.316406 -0.46875,0.316406 h -3.914063 v 15.38671881 c 0,0.11132813 -0.0293,0.19921875 -0.08203,0.26953125 -0.05566,0.0703125 -0.146484,0.13476563 -0.269531,0.1875 -0.117188,0.046875 -0.28125,0.08203125 -0.492188,0.10546875 -0.205078,0.02929688 -0.46289,0.046875 -0.773437,0.046875 -0.313477,0 -0.574219,-0.01757812 -0.785156,-0.046875 -0.210938,-0.0234375 -0.38086,-0.05859375 -0.503907,-0.10546875 -0.117187,-0.05273437 -0.205078,-0.1171875 -0.257812,-0.1875 -0.05566,-0.0703125 -0.08203,-0.15820312 -0.08203,-0.26953125 V -15.879336 h -2.472657 c -0.210937,0 -0.36914,-0.105469 -0.46875,-0.316406 -0.102539,-0.210938 -0.152343,-0.550781 -0.152343,-1.019531 0,-0.240235 0.01172,-0.445313 0.03516,-0.609375 0.02344,-0.169922 0.06152,-0.310547 0.117187,-0.421875 0.05273,-0.117188 0.120118,-0.19336 0.199219,-0.234375 0.07617,-0.04687 0.166992,-0.07031 0.269531,-0.07031 h 2.472657 v -1.816406 c 0,-1.22461 0.111328,-2.276367 0.339843,-3.152344 0.234375,-0.881836 0.585938,-1.599609 1.054688,-2.15625 0.46875,-0.5625 1.054687,-0.975586 1.757812,-1.242187 0.708985,-0.263672 1.546875,-0.398438 2.507813,-0.398438 0.451172,0 0.893555,0.04394 1.324219,0.128906 0.427734,0.08789 0.761718,0.181641 0.996093,0.28125 0.234375,0.09375 0.389649,0.181641 0.46875,0.257813 0.07617,0.0791 0.143555,0.18164 0.199219,0.304687 0.05273,0.117188 0.08789,0.266602 0.105469,0.445313 0.02344,0.172851 0.03516,0.383789 0.03516,0.632812 z m 18.131836,15.7968753 c 0,1.4384766 -0.1875,2.7597656 -0.5625,3.9609375 -0.375,1.2041016 -0.9375,2.2441406 -1.6875,3.1171875 -0.75,0.8671875 -1.6875,1.54687501 -2.8125,2.03906251 -1.125,0.48339844 -2.43164,0.7265625 -3.91406,0.7265625 -1.43848,0 -2.69531,-0.21679687 -3.77344,-0.64453125 -1.07227,-0.42773437 -1.96582,-1.05468746 -2.683594,-1.87499996 -0.711914,-0.8203125 -1.242187,-1.8164063 -1.59375,-2.9882813 -0.351562,-1.171875 -0.527343,-2.4990234 -0.527343,-3.984375 0,-1.4296878 0.18164,-2.7451168 0.550781,-3.9492188 0.375,-1.201172 0.93164,-2.238281 1.675781,-3.105469 0.75,-0.873047 1.681645,-1.549804 2.800785,-2.027343 1.125,-0.483399 2.43164,-0.726563 3.92578,-0.726563 1.44433,0 2.70117,0.216797 3.77344,0.644531 1.07812,0.430664 1.97167,1.054688 2.68359,1.875 0.71777,0.820313 1.25391,1.816407 1.60547,2.988282 0.35742,1.166015 0.53906,2.481445 0.53906,3.9492183 z m -3.38672,0.2226563 c 0,-0.9521486 -0.0908,-1.8515626 -0.26953,-2.6953126 -0.17285,-0.84375 -0.46289,-1.582031 -0.86719,-2.214844 -0.40722,-0.638672 -0.95508,-1.142578 -1.64062,-1.511718 -0.68848,-0.375 -1.54688,-0.5625 -2.57813,-0.5625 -0.94629,0 -1.76367,0.169921 -2.44922,0.503906 -0.67968,0.336914 -1.24218,0.814453 -1.6875,1.429687 -0.43945,0.618164 -0.76757,1.353516 -0.98437,2.203125 -0.21094,0.84375 -0.31641,1.766602 -0.31641,2.7656253 0,0.9609375 0.085,1.8691406 0.25782,2.71875 0.17871,0.84375 0.47167,1.5820313 0.8789,2.2148438 0.41309,0.6269531 0.96387,1.125 1.65235,1.5 0.68554,0.3691406 1.54687,0.5507812 2.57812,0.5507812 0.9375,0 1.74902,-0.1669922 2.4375,-0.5039062 0.68555,-0.3339844 1.24805,-0.8085938 1.6875,-1.4179688 0.44531,-0.6152344 0.77344,-1.3476562 0.98438,-2.1914062 0.21093,-0.84375 0.3164,-1.772461 0.3164,-2.7890625 z m 11.33496,8.75390621 c 0,0.11132813 -0.0293,0.19921875 -0.082,0.26953125 -0.0469,0.0703125 -0.12891,0.13476563 -0.24609,0.1875 -0.11719,0.046875 -0.28125,0.08203125 -0.49219,0.10546875 -0.20508,0.02929688 -0.46875,0.046875 -0.79688,0.046875 -0.31347,0 -0.57421,-0.01757812 -0.78515,-0.046875 -0.20508,-0.0234375 -0.36914,-0.05859375 -0.49219,-0.10546875 -0.12598,-0.05273437 -0.21094,-0.1171875 -0.25781,-0.1875 -0.041,-0.0703125 -0.0586,-0.15820312 -0.0586,-0.26953125 V -26.555117 c 0,-0.09961 0.0176,-0.19043 0.0586,-0.269531 0.0469,-0.07617 0.13183,-0.143555 0.25781,-0.199219 0.12305,-0.05274 0.28711,-0.09375 0.49219,-0.117188 0.21094,-0.02344 0.47168,-0.03516 0.78515,-0.03516 0.32813,0 0.5918,0.01172 0.79688,0.03516 0.21094,0.02344 0.375,0.06445 0.49219,0.117188 0.11718,0.05566 0.19922,0.123047 0.24609,0.199219 0.0527,0.0791 0.082,0.169921 0.082,0.269531 z m 21.01465,0 c 0,0.11132813 -0.0234,0.20507813 -0.0703,0.28125 -0.041,0.0791016 -0.11426,0.140625 -0.22266,0.1875 -0.11133,0.03808594 -0.25781,0.0703125 -0.44531,0.09375 -0.18164,0.02929688 -0.39844,0.046875 -0.65625,0.046875 -0.27539,0 -0.50391,-0.01757812 -0.69141,-0.046875 -0.18164,-0.0234375 -0.32812,-0.05566406 -0.44531,-0.09375 -0.11719,-0.046875 -0.20508,-0.10839844 -0.25781,-0.1875 -0.0469,-0.0761719 -0.0703,-0.16992187 -0.0703,-0.28125 V -2.8129297 c -0.92286,1.0019531 -1.88379,1.78125 -2.88282,2.34375001 -0.99316,0.5625 -2.083,0.84375 -3.26953,0.84375 -1.28906,0 -2.39062,-0.25195312 -3.30469,-0.75 -0.9082,-0.50683594 -1.64648,-1.18652341 -2.21484,-2.03906251 -0.5625,-0.8496094 -0.97266,-1.8515625 -1.23047,-3 -0.25781,-1.1484375 -0.38672,-2.3613281 -0.38672,-3.6445312 0,-1.5058596 0.15821,-2.8652346 0.48047,-4.0781246 0.32813,-1.21875 0.8086,-2.25586 1.44141,-3.117188 0.63867,-0.858398 1.43262,-1.517578 2.3789,-1.980469 0.94336,-0.459961 2.03321,-0.691406 3.26954,-0.691406 1.02246,0 1.95996,0.228516 2.8125,0.679688 0.85839,0.445312 1.70214,1.101562 2.53125,1.96875 v -10.195313 c 0,-0.09375 0.0234,-0.181641 0.0703,-0.269531 0.0469,-0.08496 0.13183,-0.146485 0.25781,-0.1875 0.13184,-0.04687 0.29883,-0.08496 0.50391,-0.117188 0.20215,-0.03809 0.45996,-0.05859 0.77343,-0.05859 0.31934,0 0.58594,0.02051 0.79688,0.05859 0.21094,0.03223 0.375,0.07031 0.49219,0.117188 0.11718,0.04101 0.20215,0.102539 0.25781,0.1875 0.0527,0.08789 0.082,0.175781 0.082,0.269531 z M 139.94477,-12.84418 c -0.86719,-1.078125 -1.71094,-1.898437 -2.53125,-2.460937 -0.81446,-0.56836 -1.66114,-0.855469 -2.54297,-0.855469 -0.82032,0 -1.51758,0.196289 -2.08594,0.585938 -0.57129,0.392578 -1.03711,0.908203 -1.39453,1.546875 -0.36035,0.632812 -0.6211,1.356445 -0.78516,2.167968 -0.1582,0.805664 -0.23437,1.623047 -0.23437,2.4492191 0,0.890625 0.0644,1.7578125 0.19922,2.6015625 0.14062,0.84375 0.37793,1.59375 0.71484,2.25 0.33398,0.65625 0.7793,1.1835937 1.33594,1.5820312 0.5625,0.3984375 1.26855,0.5976563 2.12109,0.5976563 0.42188,0 0.83203,-0.058594 1.23047,-0.1757813 0.39844,-0.1171875 0.80273,-0.3105469 1.21875,-0.5859375 0.42187,-0.2724609 0.8584,-0.6269531 1.3125,-1.0664062 0.45117,-0.4365235 0.93164,-0.9726563 1.44141,-1.6054688 z m 34.53222,3.3750003 c 0,1.4384766 -0.1875,2.7597656 -0.5625,3.9609375 -0.375,1.2041016 -0.9375,2.2441406 -1.6875,3.1171875 -0.75,0.8671875 -1.6875,1.54687501 -2.8125,2.03906251 -1.125,0.48339844 -2.43164,0.7265625 -3.91406,0.7265625 -1.43848,0 -2.69531,-0.21679687 -3.77344,-0.64453125 -1.07226,-0.42773437 -1.96582,-1.05468746 -2.68359,-1.87499996 -0.71192,-0.8203125 -1.24219,-1.8164063 -1.59375,-2.9882813 -0.35156,-1.171875 -0.52735,-2.4990234 -0.52735,-3.984375 0,-1.4296878 0.18165,-2.7451168 0.55079,-3.9492188 0.375,-1.201172 0.93164,-2.238281 1.67578,-3.105469 0.75,-0.873047 1.68164,-1.549804 2.80078,-2.027343 1.125,-0.483399 2.43164,-0.726563 3.92578,-0.726563 1.44434,0 2.70117,0.216797 3.77344,0.644531 1.07812,0.430664 1.97168,1.054688 2.68359,1.875 0.71777,0.820313 1.25391,1.816407 1.60547,2.988282 0.35742,1.166015 0.53906,2.481445 0.53906,3.9492183 z m -3.38672,0.2226563 c 0,-0.9521486 -0.0908,-1.8515626 -0.26953,-2.6953126 -0.17285,-0.84375 -0.46289,-1.582031 -0.86719,-2.214844 -0.40722,-0.638672 -0.95507,-1.142578 -1.64062,-1.511718 -0.68848,-0.375 -1.54688,-0.5625 -2.57813,-0.5625 -0.94628,0 -1.76367,0.169921 -2.44921,0.503906 -0.67969,0.336914 -1.24219,0.814453 -1.6875,1.429687 -0.43946,0.618164 -0.76758,1.353516 -0.98438,2.203125 -0.21094,0.84375 -0.31641,1.766602 -0.31641,2.7656253 0,0.9609375 0.085,1.8691406 0.25782,2.71875 0.17871,0.84375 0.47168,1.5820313 0.8789,2.2148438 0.41309,0.6269531 0.96387,1.125 1.65235,1.5 0.68554,0.3691406 1.54687,0.5507812 2.57812,0.5507812 0.9375,0 1.74903,-0.1669922 2.4375,-0.5039062 0.68555,-0.3339844 1.24805,-0.8085938 1.6875,-1.4179688 0.44531,-0.6152344 0.77344,-1.3476562 0.98438,-2.1914062 0.21093,-0.84375 0.3164,-1.772461 0.3164,-2.7890625 z m 17.74219,-16.0195316 c 0,0.243164 -0.0176,0.442383 -0.0469,0.597657 -0.0234,0.149414 -0.0527,0.269531 -0.082,0.363281 -0.0322,0.08789 -0.0762,0.146484 -0.1289,0.175781 -0.0557,0.03223 -0.12305,0.04687 -0.19922,0.04687 -0.0879,0 -0.19922,-0.02637 -0.33984,-0.08203 -0.13477,-0.06152 -0.29883,-0.128906 -0.49219,-0.199219 -0.19629,-0.07031 -0.43067,-0.131836 -0.70313,-0.1875 -0.2666,-0.06152 -0.57129,-0.09375 -0.91406,-0.09375 -0.48633,0 -0.89941,0.0791 -1.24219,0.234375 -0.33691,0.158203 -0.60937,0.404297 -0.82031,0.738281 -0.20508,0.328125 -0.35156,0.758789 -0.44531,1.289063 -0.0879,0.524414 -0.12891,1.160156 -0.12891,1.910156 v 1.921875 h 3.91406 c 0.1084,0 0.19922,0.02344 0.26954,0.07031 0.0703,0.04102 0.13183,0.117187 0.1875,0.234375 0.0615,0.111328 0.10839,0.251953 0.14062,0.421875 0.0293,0.164062 0.0469,0.36914 0.0469,0.609375 0,0.46875 -0.0586,0.808593 -0.17579,1.019531 -0.11718,0.210937 -0.27539,0.316406 -0.46875,0.316406 h -3.91406 v 15.38671881 c 0,0.11132813 -0.0293,0.19921875 -0.082,0.26953125 -0.0557,0.0703125 -0.14648,0.13476563 -0.26953,0.1875 -0.11719,0.046875 -0.28125,0.08203125 -0.49219,0.10546875 -0.20508,0.02929688 -0.46289,0.046875 -0.77344,0.046875 -0.31347,0 -0.57421,-0.01757812 -0.78515,-0.046875 -0.21094,-0.0234375 -0.38086,-0.05859375 -0.50391,-0.10546875 -0.11719,-0.05273437 -0.20508,-0.1171875 -0.25781,-0.1875 -0.0557,-0.0703125 -0.082,-0.15820312 -0.082,-0.26953125 V -15.879336 h -2.47266 c -0.21094,0 -0.36914,-0.105469 -0.46875,-0.316406 -0.10254,-0.210938 -0.15234,-0.550781 -0.15234,-1.019531 0,-0.240235 0.0117,-0.445313 0.0352,-0.609375 0.0234,-0.169922 0.0615,-0.310547 0.11719,-0.421875 0.0527,-0.117188 0.12012,-0.19336 0.19922,-0.234375 0.0762,-0.04687 0.16699,-0.07031 0.26953,-0.07031 h 2.47266 v -1.816406 c 0,-1.22461 0.11133,-2.276367 0.33984,-3.152344 0.23438,-0.881836 0.58594,-1.599609 1.05469,-2.15625 0.46875,-0.5625 1.05469,-0.975586 1.75781,-1.242187 0.70899,-0.263672 1.54688,-0.398438 2.50781,-0.398438 0.45118,0 0.89356,0.04394 1.32422,0.128906 0.42774,0.08789 0.76172,0.181641 0.9961,0.28125 0.23437,0.09375 0.38965,0.181641 0.46875,0.257813 0.0762,0.0791 0.14355,0.18164 0.19922,0.304687 0.0527,0.117188 0.0879,0.266602 0.10546,0.445313 0.0234,0.172851 0.0352,0.383789 0.0352,0.632812 z m 26.27051,8.015625 c 0,0.454102 -0.0644,0.782227 -0.1875,0.984375 -0.12598,0.205078 -0.28711,0.304688 -0.48047,0.304688 h -2.51953 c 0.45996,0.46875 0.7793,0.990234 0.96094,1.558594 0.17871,0.5625 0.26953,1.148437 0.26953,1.757812 0,1.016602 -0.16406,1.916016 -0.49219,2.6953126 -0.32227,0.7822265 -0.78516,1.4414062 -1.39453,1.9804687 -0.60352,0.5390625 -1.32129,0.9550781 -2.15625,1.2421875 -0.8291,0.28125 -1.75195,0.421875 -2.76563,0.421875 -0.71191,0 -1.3916,-0.09375 -2.03906,-0.28125 -0.6416,-0.1875 -1.13672,-0.4248047 -1.48828,-0.7148437 -0.23437,0.234375 -0.42773,0.5039062 -0.57422,0.8085937 -0.14941,0.2988281 -0.22265,0.6416016 -0.22265,1.03125 0,0.4541016 0.21093,0.8320313 0.63281,1.1367188 0.42187,0.2988281 0.98437,0.4570312 1.6875,0.4804687 l 4.58203,0.1992188 c 0.87305,0.023437 1.67578,0.1464843 2.40234,0.3632812 0.72657,0.2109375 1.35352,0.515625 1.88672,0.9140625 0.53906,0.3925781 0.95508,0.8789063 1.25391,1.46484376 0.2959,0.58007813 0.44531,1.24804688 0.44531,2.01562504 0,0.8027343 -0.16992,1.5703125 -0.50391,2.296875 -0.33691,0.7324218 -0.85546,1.3740234 -1.55859,1.921875 -0.69727,0.5537109 -1.58203,0.9902343 -2.66016,1.3125 -1.07812,0.3193359 -2.35254,0.4804687 -3.82031,0.4804687 -1.42383,0 -2.63086,-0.1230469 -3.62109,-0.3632812 C 201.74652,6.518125 200.92914,6.19 200.29047,5.7769141 c -0.63281,-0.4160157 -1.0957,-0.9140625 -1.38281,-1.5 -0.29004,-0.5800782 -0.4336,-1.2041016 -0.4336,-1.875 0,-0.4306641 0.0498,-0.8496094 0.15235,-1.2539063 0.10839,-0.39843749 0.26953,-0.78222655 0.48047,-1.1484374875 0.21679,-0.3662109425 0.48339,-0.7148437525 0.79687,-1.0429687125 0.31934,-0.3339844 0.69141,-0.6621094 1.11328,-0.984375 -0.6416,-0.328125 -1.11328,-0.7382813 -1.41797,-1.2304688 -0.30468,-0.4921875 -0.45703,-1.0253906 -0.45703,-1.6054687 0,-0.788086 0.1582,-1.4941407 0.48047,-2.1210938 0.32813,-0.6240234 0.73242,-1.1835937 1.21875,-1.6757812 -0.40723,-0.4833985 -0.72656,-1.0253907 -0.96094,-1.6289061 -0.23437,-0.609375 -0.35156,-1.341797 -0.35156,-2.203125 0,-0.999024 0.16699,-1.892578 0.50391,-2.683594 0.34277,-0.796875 0.81152,-1.467773 1.40625,-2.015625 0.60058,-0.544922 1.31836,-0.963867 2.15625,-1.253906 0.84375,-0.295899 1.75781,-0.445313 2.74218,-0.445313 0.53907,0 1.03711,0.03223 1.5,0.09375 0.45996,0.05566 0.89063,0.137696 1.28907,0.246094 h 5.30859 c 0.22559,0 0.39258,0.105469 0.50391,0.316406 0.10839,0.210938 0.16406,0.539063 0.16406,0.984375 z m -5.03906,4.628907 c 0,-1.195313 -0.32813,-2.126954 -0.98438,-2.800782 -0.65625,-0.670898 -1.59082,-1.007812 -2.80078,-1.007812 -0.62695,0 -1.16895,0.105469 -1.62891,0.316406 -0.46289,0.205078 -0.84375,0.489258 -1.14843,0.855469 -0.30469,0.36914 -0.53321,0.791015 -0.67969,1.265625 -0.14942,0.46875 -0.22266,0.966797 -0.22266,1.488281 0,1.157227 0.32813,2.068359 0.98438,2.7304688 0.65625,0.6650391 1.57324,0.9960938 2.7539,0.9960938 0.63868,0 1.19532,-0.099609 1.66407,-0.3046875 0.46875,-0.2021485 0.85547,-0.4804688 1.16015,-0.8320313 0.30469,-0.3574218 0.53028,-0.7734378 0.67969,-1.2421878 0.14648,-0.46875 0.22266,-0.955078 0.22266,-1.464843 z m 1.61718,13.9101558 c 0,-0.75878905 -0.31054,-1.33886718 -0.92578,-1.74609374 -0.61816,-0.41308594 -1.45312,-0.63281246 -2.50781,-0.65624996 l -4.54687,-0.1523438 c -0.41602,0.32226564 -0.75586,0.62988282 -1.01954,0.92578126 -0.2666,0.29003906 -0.47754,0.56542969 -0.63281,0.83203125 -0.1582,0.27246094 -0.2666,0.53906249 -0.32812,0.79687499 -0.0557,0.2578125 -0.082,0.5214844 -0.082,0.796875 0,0.84375 0.42773,1.4824219 1.28906,1.921875 0.8584,0.4365234 2.05371,0.65625 3.58594,0.65625 0.97558,0 1.79296,-0.09375 2.44921,-0.28125 0.65625,-0.1875 1.18653,-0.4394531 1.59375,-0.75 0.4043,-0.3134766 0.69434,-0.6738281 0.86719,-1.078125 0.16992,-0.3984375 0.25781,-0.8203125 0.25781,-1.265625 z m 14.23829,-28.1718748 c -1.23633,2.610351 -2.15625,5.293945 -2.76563,8.050781 -0.60352,2.750977 -0.90234,5.516602 -0.90234,8.296875 0,2.7978516 0.30761,5.5722657 0.92578,8.3203126 0.61523,2.74218746 1.51758,5.4316406 2.70703,8.0742187 0.0615,0.1464844 0.0967,0.2753906 0.10547,0.3867188 0.006,0.1171875 -0.0352,0.2109375 -0.12891,0.28125 -0.0879,0.070312 -0.22851,0.1201171 -0.42187,0.1523437 -0.1875,0.029297 -0.44239,0.046875 -0.76172,0.046875 -0.23438,0 -0.43946,-0.00879 -0.60938,-0.023437 -0.17285,-0.00879 -0.32226,-0.032227 -0.44531,-0.070312 -0.11719,-0.041016 -0.2168,-0.087891 -0.29297,-0.140625 -0.0791,-0.046875 -0.13769,-0.1054687 -0.17578,-0.1757812 -0.70312,-1.3212891 -1.32422,-2.6601563 -1.86328,-4.0195313 -0.5332,-1.35937499 -0.98145,-2.74218749 -1.34766,-4.1484375 -0.36035,-1.40625 -0.63281,-2.8271484 -0.82031,-4.265625 -0.18164,-1.4355469 -0.26953,-2.8886719 -0.26953,-4.3593748 0,-1.467774 0.0996,-2.917969 0.30469,-4.347656 0.20214,-1.435547 0.48632,-2.859375 0.85547,-4.265625 0.375,-1.41211 0.82617,-2.803711 1.35937,-4.171875 0.53906,-1.365235 1.13672,-2.71875 1.79297,-4.054688 0.0146,-0.05273 0.0498,-0.09961 0.10547,-0.140625 0.0615,-0.03809 0.14355,-0.07617 0.24609,-0.117187 0.1084,-0.03809 0.25195,-0.06445 0.4336,-0.08203 0.17871,-0.02344 0.41308,-0.03516 0.70312,-0.03516 0.2959,0 0.5332,0.02051 0.71484,0.05859 0.1875,0.04101 0.33106,0.09375 0.4336,0.164062 0.1084,0.06445 0.16699,0.149414 0.17578,0.257813 0.0146,0.102539 -0.006,0.210937 -0.0586,0.328125 z m 9.58886,15.492187 c 0,0.922852 -0.15234,1.5351566 -0.45703,1.8398441 -0.30469,0.3046875 -0.86133,0.4570312 -1.66406,0.4570312 -0.78223,0 -1.32422,-0.1464844 -1.62891,-0.4453125 -0.29883,-0.3046875 -0.44531,-0.9023438 -0.44531,-1.7929688 0,-0.928711 0.15234,-1.546875 0.45703,-1.851562 0.31055,-0.304688 0.87012,-0.457032 1.67578,-0.457032 0.7793,0 1.31836,0.152344 1.61719,0.457032 0.2959,0.298828 0.44531,0.896484 0.44531,1.792968 z m 12.43653,0.914063 c 0,1.4707029 -0.0937,2.9238279 -0.28125,4.3593748 -0.18164,1.4384766 -0.45411,2.859375 -0.82032,4.265625 -0.36035,1.40625001 -0.80566,2.78906251 -1.33593,4.1484375 -0.52442,1.359375 -1.13672,2.6982422 -1.83985,4.0195313 -0.041,0.070312 -0.0996,0.1289062 -0.17578,0.1757812 -0.0791,0.052734 -0.18164,0.099609 -0.30469,0.140625 -0.11718,0.038086 -0.26367,0.061523 -0.43359,0.070312 -0.17285,0.014648 -0.375,0.023437 -0.60938,0.023437 -0.33691,0 -0.59765,-0.017578 -0.78515,-0.046875 -0.1875,-0.032227 -0.3252,-0.082031 -0.41016,-0.1523437 -0.0879,-0.070312 -0.12597,-0.1640625 -0.11719,-0.28125 0.006,-0.1113282 0.041,-0.2402344 0.10547,-0.3867188 1.19532,-2.6337891 2.09766,-5.32617186 2.70703,-8.0742187 0.61524,-2.7480469 0.92579,-5.522461 0.92579,-8.3203126 0,-2.780273 -0.31055,-5.545898 -0.92579,-8.296875 -0.60937,-2.756836 -1.52343,-5.44043 -2.74218,-8.050781 -0.0557,-0.117188 -0.0791,-0.225586 -0.0703,-0.328125 0.0146,-0.108399 0.0733,-0.19336 0.17579,-0.257813 0.10839,-0.07031 0.25195,-0.123047 0.43359,-0.164062 0.1875,-0.03809 0.42773,-0.05859 0.72656,-0.05859 0.27246,0 0.49805,0.01172 0.67969,0.03516 0.1875,0.01758 0.33398,0.04395 0.44531,0.08203 0.1084,0.04102 0.1875,0.0791 0.23438,0.117187 0.0527,0.04102 0.0967,0.08789 0.1289,0.140625 1.33594,2.666016 2.38184,5.408203 3.14063,8.226563 0.76465,2.8125 1.14844,5.683593 1.14844,8.613281 z m 0,0"
         style="fill:#000000;fill-opacity:1;fill-rule:nonzero;stroke:none"
         aria-label="Manifold of g(∙)"
         transform="matrix(1.3333333,0,0,1.3333333,2647.5867,1242.7467)"
         clip-path="url(#clipPath9570)" />
    </g>
  </g>
</svg>
