<?xml version="1.0" encoding="UTF-8" standalone="no"?>
<svg
   width="159.891479pt"
   height="116.249992pt"
   viewBox="0 0 159.891479 116.249992"
   version="1.2"
   id="svg126"
   sodipodi:docname="icon.svg"
   inkscape:version="1.1.1 (3bf5ae0d25, 2021-09-20)"
   xmlns:inkscape="http://www.inkscape.org/namespaces/inkscape"
   xmlns:sodipodi="http://sodipodi.sourceforge.net/DTD/sodipodi-0.dtd"
   xmlns="http://www.w3.org/2000/svg"
   xmlns:svg="http://www.w3.org/2000/svg">
  <sodipodi:namedview
     id="namedview128"
     pagecolor="#ffffff"
     bordercolor="#666666"
     borderopacity="1.0"
     inkscape:pageshadow="2"
     inkscape:pageopacity="0.0"
     inkscape:pagecheckerboard="0"
     inkscape:document-units="pt"
     showgrid="false"
     inkscape:zoom="5.5806455"
     inkscape:cx="106.52889"
     inkscape:cy="77.499995"
     inkscape:window-width="1920"
     inkscape:window-height="1042"
     inkscape:window-x="0"
     inkscape:window-y="38"
     inkscape:window-maximized="1"
     inkscape:current-layer="svg126" />
  <defs
     id="defs23">
    <clipPath
       id="clip1">
      <path
         d="M 49 90 L 79 90 L 79 116.25 L 49 116.25 Z M 49 90 "
         id="path2" />
    </clipPath>
    <clipPath
       id="clip2">
      <path
         d="M 31 90 L 60 90 L 60 116.25 L 31 116.25 Z M 31 90 "
         id="path5" />
    </clipPath>
    <clipPath
       id="clip3">
      <path
         d="M 12 90 L 41 90 L 41 116.25 L 12 116.25 Z M 12 90 "
         id="path8" />
    </clipPath>
    <clipPath
       id="clip4">
      <path
         d="M 0 90 L 23 90 L 23 116.25 L 0 116.25 Z M 0 90 "
         id="path11" />
    </clipPath>
    <clipPath
       id="clip5">
      <path
         d="M 133 18 L 159.890625 18 L 159.890625 55 L 133 55 Z M 133 18 "
         id="path14" />
    </clipPath>
    <clipPath
       id="clip6">
      <path
         d="M 133 63 L 159.890625 63 L 159.890625 100 L 133 100 Z M 133 63 "
         id="path17" />
    </clipPath>
    <clipPath
       id="clip7">
      <path
         d="M 78 0 L 80 0 L 80 116.25 L 78 116.25 Z M 78 0 "
         id="path20" />
    </clipPath>
  </defs>
  <g
     id="surface3227">
    <path
       style="fill:none;stroke-width:1.187717;stroke-linecap:butt;stroke-linejoin:miter;stroke:rgb(100%,0%,0%);stroke-opacity:1;stroke-miterlimit:4;"
       d="M 56.667969 52.5 L 71.667969 67.5 "
       id="path25" />
    <path
       style="fill:none;stroke-width:1.187717;stroke-linecap:butt;stroke-linejoin:miter;stroke:rgb(100%,0%,0%);stroke-opacity:1;stroke-miterlimit:4;"
       d="M 56.667969 67.5 L 71.667969 52.5 "
       id="path27" />
    <path
       style="fill:none;stroke-width:1.187717;stroke-linecap:butt;stroke-linejoin:miter;stroke:rgb(100%,0%,0%);stroke-opacity:1;stroke-miterlimit:4;"
       d="M 37.921875 52.5 L 52.917969 67.5 "
       id="path29" />
    <path
       style="fill:none;stroke-width:1.187717;stroke-linecap:butt;stroke-linejoin:miter;stroke:rgb(100%,0%,0%);stroke-opacity:1;stroke-miterlimit:4;"
       d="M 37.921875 52.5 L 52.917969 67.5 "
       id="path31" />
    <path
       style="fill:none;stroke-width:1.187717;stroke-linecap:butt;stroke-linejoin:miter;stroke:rgb(100%,0%,0%);stroke-opacity:1;stroke-miterlimit:4;"
       d="M 37.921875 67.5 L 52.917969 52.5 "
       id="path33" />
    <path
       style="fill:none;stroke-width:1.187717;stroke-linecap:butt;stroke-linejoin:miter;stroke:rgb(100%,0%,0%);stroke-opacity:1;stroke-miterlimit:4;"
       d="M 19.167969 52.5 L 34.167969 67.5 "
       id="path35" />
    <path
       style="fill:none;stroke-width:1.187717;stroke-linecap:butt;stroke-linejoin:miter;stroke:rgb(100%,0%,0%);stroke-opacity:1;stroke-miterlimit:4;"
       d="M 19.167969 52.5 L 34.167969 67.5 "
       id="path37" />
    <path
       style="fill:none;stroke-width:1.187717;stroke-linecap:butt;stroke-linejoin:miter;stroke:rgb(100%,0%,0%);stroke-opacity:1;stroke-miterlimit:4;"
       d="M 19.167969 67.5 L 34.167969 52.5 "
       id="path39" />
    <path
       style="fill:none;stroke-width:1.187717;stroke-linecap:butt;stroke-linejoin:miter;stroke:rgb(100%,0%,0%);stroke-opacity:1;stroke-miterlimit:4;"
       d="M 0.417969 52.5 L 15.417969 67.5 "
       id="path41" />
    <path
       style="fill:none;stroke-width:1.187717;stroke-linecap:butt;stroke-linejoin:miter;stroke:rgb(100%,0%,0%);stroke-opacity:1;stroke-miterlimit:4;"
       d="M 0.417969 52.5 L 15.417969 67.5 "
       id="path43" />
    <path
       style="fill:none;stroke-width:1.187717;stroke-linecap:butt;stroke-linejoin:miter;stroke:rgb(100%,0%,0%);stroke-opacity:1;stroke-miterlimit:4;"
       d="M 0.417969 67.5 L 15.417969 52.5 "
       id="path45" />
    <g
       clip-path="url(#clip1)"
       clip-rule="nonzero"
       id="g51">
      <path
         style="fill:none;stroke-width:1.187717;stroke-linecap:butt;stroke-linejoin:miter;stroke:rgb(100%,0%,0%);stroke-opacity:1;stroke-miterlimit:4;"
         d="M 56.671875 97.5 L 71.671875 112.5 "
         id="path47" />
      <path
         style="fill:none;stroke-width:1.187717;stroke-linecap:butt;stroke-linejoin:miter;stroke:rgb(100%,0%,0%);stroke-opacity:1;stroke-miterlimit:4;"
         d="M 56.671875 112.5 L 71.671875 97.5 "
         id="path49" />
    </g>
    <g
       clip-path="url(#clip2)"
       clip-rule="nonzero"
       id="g59">
      <path
         style="fill:none;stroke-width:1.187717;stroke-linecap:butt;stroke-linejoin:miter;stroke:rgb(100%,0%,0%);stroke-opacity:1;stroke-miterlimit:4;"
         d="M 37.921875 97.5 L 52.917969 112.5 "
         id="path53" />
      <path
         style="fill:none;stroke-width:1.187717;stroke-linecap:butt;stroke-linejoin:miter;stroke:rgb(100%,0%,0%);stroke-opacity:1;stroke-miterlimit:4;"
         d="M 37.921875 97.5 L 52.917969 112.5 "
         id="path55" />
      <path
         style="fill:none;stroke-width:1.187717;stroke-linecap:butt;stroke-linejoin:miter;stroke:rgb(100%,0%,0%);stroke-opacity:1;stroke-miterlimit:4;"
         d="M 37.921875 112.5 L 52.917969 97.5 "
         id="path57" />
    </g>
    <g
       clip-path="url(#clip3)"
       clip-rule="nonzero"
       id="g67">
      <path
         style="fill:none;stroke-width:1.187717;stroke-linecap:butt;stroke-linejoin:miter;stroke:rgb(100%,0%,0%);stroke-opacity:1;stroke-miterlimit:4;"
         d="M 19.171875 97.5 L 34.167969 112.5 "
         id="path61" />
      <path
         style="fill:none;stroke-width:1.187717;stroke-linecap:butt;stroke-linejoin:miter;stroke:rgb(100%,0%,0%);stroke-opacity:1;stroke-miterlimit:4;"
         d="M 19.171875 97.5 L 34.167969 112.5 "
         id="path63" />
      <path
         style="fill:none;stroke-width:1.187717;stroke-linecap:butt;stroke-linejoin:miter;stroke:rgb(100%,0%,0%);stroke-opacity:1;stroke-miterlimit:4;"
         d="M 19.171875 112.5 L 34.167969 97.5 "
         id="path65" />
    </g>
    <g
       clip-path="url(#clip4)"
       clip-rule="nonzero"
       id="g75">
      <path
         style="fill:none;stroke-width:1.187717;stroke-linecap:butt;stroke-linejoin:miter;stroke:rgb(100%,0%,0%);stroke-opacity:1;stroke-miterlimit:4;"
         d="M 0.421875 97.5 L 15.421875 112.5 "
         id="path69" />
      <path
         style="fill:none;stroke-width:1.187717;stroke-linecap:butt;stroke-linejoin:miter;stroke:rgb(100%,0%,0%);stroke-opacity:1;stroke-miterlimit:4;"
         d="M 0.421875 97.5 L 15.421875 112.5 "
         id="path71" />
      <path
         style="fill:none;stroke-width:1.187717;stroke-linecap:butt;stroke-linejoin:miter;stroke:rgb(100%,0%,0%);stroke-opacity:1;stroke-miterlimit:4;"
         d="M 0.421875 112.5 L 15.421875 97.5 "
         id="path73" />
    </g>
    <path
       style="fill:none;stroke-width:1.187717;stroke-linecap:butt;stroke-linejoin:miter;stroke:rgb(100%,0%,0%);stroke-opacity:1;stroke-miterlimit:4;"
       d="M 56.667969 7.5 L 71.667969 22.5 "
       id="path77" />
    <path
       style="fill:none;stroke-width:1.187717;stroke-linecap:butt;stroke-linejoin:miter;stroke:rgb(100%,0%,0%);stroke-opacity:1;stroke-miterlimit:4;"
       d="M 56.667969 22.5 L 71.667969 7.5 "
       id="path79" />
    <path
       style="fill:none;stroke-width:1.187717;stroke-linecap:butt;stroke-linejoin:miter;stroke:rgb(100%,0%,0%);stroke-opacity:1;stroke-miterlimit:4;"
       d="M 37.917969 7.5 L 52.917969 22.5 "
       id="path81" />
    <path
       style="fill:none;stroke-width:1.187717;stroke-linecap:butt;stroke-linejoin:miter;stroke:rgb(100%,0%,0%);stroke-opacity:1;stroke-miterlimit:4;"
       d="M 37.917969 7.5 L 52.917969 22.5 "
       id="path83" />
    <path
       style="fill:none;stroke-width:1.187717;stroke-linecap:butt;stroke-linejoin:miter;stroke:rgb(100%,0%,0%);stroke-opacity:1;stroke-miterlimit:4;"
       d="M 37.917969 22.5 L 52.917969 7.5 "
       id="path85" />
    <path
       style="fill:none;stroke-width:1.187717;stroke-linecap:butt;stroke-linejoin:miter;stroke:rgb(100%,0%,0%);stroke-opacity:1;stroke-miterlimit:4;"
       d="M 19.167969 7.5 L 34.167969 22.5 "
       id="path87" />
    <path
       style="fill:none;stroke-width:1.187717;stroke-linecap:butt;stroke-linejoin:miter;stroke:rgb(100%,0%,0%);stroke-opacity:1;stroke-miterlimit:4;"
       d="M 19.167969 7.5 L 34.167969 22.5 "
       id="path89" />
    <path
       style="fill:none;stroke-width:1.187717;stroke-linecap:butt;stroke-linejoin:miter;stroke:rgb(100%,0%,0%);stroke-opacity:1;stroke-miterlimit:4;"
       d="M 19.167969 22.5 L 34.167969 7.5 "
       id="path91" />
    <path
       style="fill:none;stroke-width:1.187717;stroke-linecap:butt;stroke-linejoin:miter;stroke:rgb(100%,0%,0%);stroke-opacity:1;stroke-miterlimit:4;"
       d="M 0.417969 7.5 L 15.417969 22.5 "
       id="path93" />
    <path
       style="fill:none;stroke-width:1.187717;stroke-linecap:butt;stroke-linejoin:miter;stroke:rgb(100%,0%,0%);stroke-opacity:1;stroke-miterlimit:4;"
       d="M 0.417969 7.5 L 15.417969 22.5 "
       id="path95" />
    <path
       style="fill:none;stroke-width:1.187717;stroke-linecap:butt;stroke-linejoin:miter;stroke:rgb(100%,0%,0%);stroke-opacity:1;stroke-miterlimit:4;"
       d="M 0.417969 22.5 L 15.417969 7.5 "
       id="path97" />
    <path
       style="fill:none;stroke-width:1.885039;stroke-linecap:butt;stroke-linejoin:miter;stroke:rgb(0%,0%,99.606323%);stroke-opacity:1;stroke-miterlimit:4;"
       d="M 102.632812 36.542969 C 102.632812 40.6875 99.273438 44.042969 95.132812 44.042969 C 90.992188 44.042969 87.632812 40.6875 87.632812 36.542969 C 87.632812 32.402344 90.992188 29.042969 95.132812 29.042969 C 99.273438 29.042969 102.632812 32.402344 102.632812 36.542969 Z M 102.632812 36.542969 "
       id="path99" />
    <path
       style="fill:none;stroke-width:1.885039;stroke-linecap:butt;stroke-linejoin:miter;stroke:rgb(0%,0%,99.606323%);stroke-opacity:1;stroke-miterlimit:4;"
       d="M 121.445312 36.644531 C 121.445312 40.785156 118.085938 44.144531 113.945312 44.144531 C 109.800781 44.144531 106.445312 40.785156 106.445312 36.644531 C 106.445312 32.503906 109.800781 29.144531 113.945312 29.144531 C 118.085938 29.144531 121.445312 32.503906 121.445312 36.644531 Z M 121.445312 36.644531 "
       id="path101" />
    <path
       style="fill:none;stroke-width:1.885039;stroke-linecap:butt;stroke-linejoin:miter;stroke:rgb(0%,0%,99.606323%);stroke-opacity:1;stroke-miterlimit:4;"
       d="M 140.050781 36.613281 C 140.050781 40.757812 136.695312 44.113281 132.550781 44.113281 C 128.410156 44.113281 125.050781 40.757812 125.050781 36.613281 C 125.050781 32.472656 128.410156 29.113281 132.550781 29.113281 C 136.695312 29.113281 140.050781 32.472656 140.050781 36.613281 Z M 140.050781 36.613281 "
       id="path103" />
    <g
       clip-path="url(#clip5)"
       clip-rule="nonzero"
       id="g107">
      <path
         style="fill:none;stroke-width:1.885039;stroke-linecap:butt;stroke-linejoin:miter;stroke:rgb(0%,0%,99.606323%);stroke-opacity:1;stroke-miterlimit:4;"
         d="M 158.949219 36.667969 C 158.949219 40.808594 155.589844 44.167969 151.449219 44.167969 C 147.308594 44.167969 143.949219 40.808594 143.949219 36.667969 C 143.949219 32.527344 147.308594 29.167969 151.449219 29.167969 C 155.589844 29.167969 158.949219 32.527344 158.949219 36.667969 Z M 158.949219 36.667969 "
         id="path105" />
    </g>
    <path
       style="fill:none;stroke-width:1.885039;stroke-linecap:butt;stroke-linejoin:miter;stroke:rgb(0%,0%,99.606323%);stroke-opacity:1;stroke-miterlimit:4;"
       d="M 102.671875 81.46875 C 102.671875 85.609375 99.3125 88.96875 95.171875 88.96875 C 91.03125 88.96875 87.671875 85.609375 87.671875 81.46875 C 87.671875 77.328125 91.03125 73.96875 95.171875 73.96875 C 99.3125 73.96875 102.671875 77.328125 102.671875 81.46875 Z M 102.671875 81.46875 "
       id="path109" />
    <path
       style="fill:none;stroke-width:1.885039;stroke-linecap:butt;stroke-linejoin:miter;stroke:rgb(0%,0%,99.606323%);stroke-opacity:1;stroke-miterlimit:4;"
       d="M 121.464844 81.566406 C 121.464844 85.710938 118.105469 89.066406 113.964844 89.066406 C 109.824219 89.066406 106.464844 85.710938 106.464844 81.566406 C 106.464844 77.425781 109.824219 74.066406 113.964844 74.066406 C 118.105469 74.066406 121.464844 77.425781 121.464844 81.566406 Z M 121.464844 81.566406 "
       id="path111" />
    <path
       style="fill:none;stroke-width:1.885039;stroke-linecap:butt;stroke-linejoin:miter;stroke:rgb(0%,0%,99.606323%);stroke-opacity:1;stroke-miterlimit:4;"
       d="M 140.089844 81.539062 C 140.089844 85.683594 136.734375 89.039062 132.589844 89.039062 C 128.449219 89.039062 125.089844 85.683594 125.089844 81.539062 C 125.089844 77.398438 128.449219 74.039062 132.589844 74.039062 C 136.734375 74.039062 140.089844 77.398438 140.089844 81.539062 Z M 140.089844 81.539062 "
       id="path113" />
    <g
       clip-path="url(#clip6)"
       clip-rule="nonzero"
       id="g117">
      <path
         style="fill:none;stroke-width:1.885039;stroke-linecap:butt;stroke-linejoin:miter;stroke:rgb(0%,0%,99.606323%);stroke-opacity:1;stroke-miterlimit:4;"
         d="M 158.863281 81.59375 C 158.863281 85.734375 155.503906 89.09375 151.363281 89.09375 C 147.222656 89.09375 143.863281 85.734375 143.863281 81.59375 C 143.863281 77.449219 147.222656 74.09375 151.363281 74.09375 C 155.503906 74.09375 158.863281 77.449219 158.863281 81.59375 Z M 158.863281 81.59375 "
         id="path115" />
    </g>
    <g
       clip-path="url(#clip7)"
       clip-rule="nonzero"
       id="g121">
      <path
         style="fill:none;stroke-width:0.749999;stroke-linecap:butt;stroke-linejoin:miter;stroke:rgb(0%,0%,0%);stroke-opacity:1;stroke-miterlimit:4;"
         d="M 79.167969 0 L 79.167969 116.25 "
         id="path119" />
    </g>
    <path
       style="fill:none;stroke-width:0.751181;stroke-linecap:butt;stroke-linejoin:miter;stroke:rgb(0%,0%,0%);stroke-opacity:1;stroke-dasharray:2.253543,0.751181;stroke-miterlimit:4;"
       d="M 94.171875 11.25 L 64.554688 36.75 L 94.148438 59.949219 L 64.167969 82.5 L 94.171875 105 "
       id="path123" />
  </g>
</svg>
